<svg width="324" height="91" viewBox="0 0 324 91" fill="none" xmlns="http://www.w3.org/2000/svg">
<circle cx="162" cy="45.2647" r="38.7647" fill="#3E64FF" stroke="#869CFA" stroke-width="13"/>
<path d="M14.2931 55.0195C13.0051 55.0195 11.8478 54.7955 10.8211 54.3475C9.8131 
53.8808 9.01976 53.2462 8.4411 52.4435C7.86243 
51.6222 7.56376 50.6795 7.5451 49.6155H10.2611C10.3544 
50.5302 10.7278 51.3048 11.3811 51.9395C12.0531 52.5555
 13.0238 52.8635 14.2931 52.8635C15.5064 52.8635 16.4584 
 52.5648 17.1491 51.9675C17.8584 51.3515 18.2131 50.5675 18.2131
  49.6155C18.2131 48.8688 18.0078 48.2622 17.5971 47.7955C17.1864 
  47.3288 16.6731 46.9742 16.0571 46.7315C15.4411 46.4888 14.6104
   46.2275 13.5651 45.9475C12.2771 45.6115 11.2411 45.2755 10.4571 
   44.9395C9.69176 44.6035 9.0291 44.0808 8.4691 43.3715C7.92776 
   42.6435 7.6571 41.6728 7.6571 40.4595C7.6571 39.3955 7.92776 
   38.4528 8.4691 37.6315C9.01043 36.8102 9.76643 36.1755 10.7371
    35.7275C11.7264 35.2795 12.8558 35.0555 14.1251 35.0555C15.9544 
    35.0555 17.4478 35.5128 18.6051 36.4275C19.7811 37.3422 20.4438 
    38.5555 20.5931 40.0675H17.7931C17.6998 39.3208 17.3078 38.6675 
    16.6171 38.1075C15.9264 37.5288 15.0118 37.2395 13.8731 37.2395C12.8091
     37.2395 11.9411 37.5195 11.2691 38.0795C10.5971 38.6208 10.2611 39.3862 
     10.2611 40.3755C10.2611 41.0848 10.4571 41.6635 10.8491 42.1115C11.2598 
     42.5595 11.7544 42.9048 12.3331 43.1475C12.9304 43.3715 13.7611 43.6328 
     14.8251 43.9315C16.1131 44.2862 17.1491 44.6408 17.9331 44.9955C18.7171 
     45.3315 19.3891 45.8635 19.9491 46.5915C20.5091 47.3008 20.7891 48.2715
      20.7891 49.5035C20.7891 50.4555 20.5371 51.3515 20.0331 52.1915C19.5291 
      53.0315 18.7824 53.7128 17.7931 54.2355C16.8038 54.7582 15.6371 55.0195 
      14.2931 55.0195ZM89.3867 55.0195C87.576 55.0195 85.924 54.5995 84.4307 
      53.7595C82.9374 52.9008 81.752 51.7155 80.8747 50.2035C80.016 48.6728 
      79.5867 46.9555 79.5867 45.0515C79.5867 43.1475 80.016 41.4395 80.8747
       39.9275C81.752 38.3968 82.9374 37.2115 84.4307 36.3715C85.924 35.5128 
       87.576 35.0835 89.3867 35.0835C91.216 35.0835 92.8774 35.5128 94.3707
        36.3715C95.864 37.2115 97.04 38.3875 97.8987 39.8995C98.7574 41.4115 
        99.1867 43.1288 99.1867 45.0515C99.1867 46.9742 98.7574 48.6915 97.8987 
        50.2035C97.04 51.7155 95.864 52.9008 94.3707 53.7595C92.8774 54.5995
         91.216 55.0195 89.3867 55.0195ZM89.3867 52.8075C90.7494 52.8075
          91.972 52.4902 93.0547 51.8555C94.156 51.2208 95.0147 50.3155 
          95.6307 49.1395C96.2654 47.9635 96.5827 46.6008 96.5827 
          45.0515C96.5827 43.4835 96.2654 42.1208 95.6307 40.9635C95.0147
           39.7875 94.1654 38.8822 93.0827 38.2475C92 37.6128 90.768
            37.2955 89.3867 37.2955C88.0054 37.2955 86.7734 37.6128
             85.6907 38.2475C84.608 38.8822 83.7494 39.7875 83.1147 
             40.9635C82.4987 42.1208 82.1907 43.4835 82.1907 45.0515C82.1907 46.6008 82.4987 47.9635 83.1147 49.1395C83.7494 50.3155 84.608 51.2208 85.6907 51.8555C86.792 52.4902 88.024 52.8075 89.3867 52.8075ZM163.45 50.6235H169.582V54.8235H157.962V35.0835H163.45V50.6235ZM239.84 50.4835H231.328L229.76 54.8235H227.072L234.128 35.4195H237.068L244.096 54.8235H241.408L239.84 50.4835ZM239.112 48.4115L235.584 38.5555L232.056 48.4115H239.112ZM313.448 54.8235L308.8 46.8435H305.72V54.8235H303.172V35.3075H309.472C310.946 35.3075 312.188 35.5595 313.196 36.0635C314.222 36.5675 314.988 37.2488 315.492 38.1075C315.996 38.9662 316.248 39.9462 316.248 41.0475C316.248 42.3915 315.856 43.5768 315.072 44.6035C314.306 45.6302 313.149 46.3115 311.6 46.6475L316.5 54.8235H313.448ZM305.72 44.7995H309.472C310.853 44.7995 311.889 44.4635 312.58 43.7915C313.27 43.1008 313.616 42.1862 313.616 41.0475C313.616 39.8902 313.27 38.9942 312.58 38.3595C311.908 37.7248 310.872 37.4075 309.472 37.4075H305.72V44.7995Z" 
             fill="white"/>
</svg>
